<?xml version="1.0" encoding="UTF-8"?>
<svg id="Layer_1" data-name="Layer 1" xmlns="http://www.w3.org/2000/svg" viewBox="0 0 458.14 154.2">
  <defs>
    <style>
      .cls-1, .cls-2 {
        fill: #fff;
      }

      .cls-3 {
        fill: #d61d50;
      }

      .cls-2 {
        font-family: CenturyGothic-Bold, 'Century Gothic';
        font-size: 85.18px;
      }
    </style>
  </defs>
  <g>
    <path class="cls-1" d="M131.7,67.66c-2.63,4.23-5.08,8.59-7.91,12.68-12.25,17.72-27.41,32.71-44.06,46.25-1.07,.87-2.25,1.72-3.52,2.24-2.29,.93-4.49,.25-6.46-1.04-4.23-2.77-8.5-5.5-12.63-8.43-12.21-8.65-23.65-18.21-33.79-29.25-7.03-7.66-13.25-15.89-17.72-25.34C2,57.12-.37,49.15,.05,40.63,.82,24.75,7.81,12.42,21.64,4.31,28.18,.48,35.37-.56,42.88,.27c12.22,1.35,21.49,7.52,28.61,17.31,3.52,4.84,6.25,10.13,8.94,15.45,5.23,10.33,13.8,16.22,24.87,18.77,5.42,1.25,10.85,1.3,16.24-.25,8.23-2.36,12.94-8.24,13.4-16.8,.31-5.81-1.08-11.01-5.66-14.99-2.11-1.83-4.53-3.14-7.16-4.03-5.93-2.02-11.97-2.36-18.03-.78-6.92,1.81-11.86,6.33-15.74,12.12-1.49,2.22-2.81,4.55-4.29,6.98-.26-.44-.5-.83-.72-1.23-2.22-4.09-4.44-8.17-6.62-12.28-.16-.31-.16-.9,.03-1.18C84.47,7.81,94.87,.76,109.09,.1c9.09-.42,17.63,1.38,25.4,6.24,7.76,4.85,12.46,11.83,13.9,20.88,1.27,7.97,.42,15.69-3.57,22.84-4.82,8.62-12.44,13.53-21.89,15.51-12.88,2.7-25.01,.24-36.34-6.28-8.77-5.04-15.04-12.37-19.41-21.43-2.28-4.73-4.76-9.36-8.07-13.48-6.21-7.75-14.23-11.36-24.14-10.11-5.95,.75-10.59,4.06-14.26,8.65-6.8,8.51-8.24,18.11-5.29,28.43,2.31,8.11,6.71,15.14,11.83,21.74,7.62,9.82,16.55,18.36,26.32,25.99,6.45,5.04,13.21,9.66,19.83,14.48,.61,.44,1.09,.53,1.79,.11,17.49-10.23,33.89-21.88,47.92-36.63,2.66-2.8,5.05-5.86,7.56-8.8,.24-.28,.46-.56,.69-.84,.12,.09,.24,.17,.35,.26Z"/>
    <path class="cls-3" d="M20.59,48.43c3.42,3.98,7.97,5.63,12.99,5.73,12.4,.25,22.9-4.12,31.2-13.47,.1-.11,.19-.23,.3-.33,.05-.05,.13-.07,.1-.05,2.27,3.52,4.53,7.04,6.93,10.76,.05-.02-.16,.05-.35,.17-11.66,7.58-24.29,10.01-37.87,6.95-4.38-.99-8.34-2.99-11.38-6.45-.84-.95-1.48-2.08-2.21-3.12l.29-.18Z"/>
  </g>
  <text class="cls-2" transform="translate(125.92 128.08)"><tspan x="0" y="0">Masahe</tspan></text>
</svg>