<?xml version="1.0" encoding="UTF-8"?>
<svg id="Layer_1" data-name="Layer 1" xmlns="http://www.w3.org/2000/svg" viewBox="0 0 301.06 287">
  <defs>
    <style>
      .cls-1 {
        fill: #fff;
      }

      .cls-2 {
        fill: #d61c50;
      }

      .cls-3 {
        fill: #010101;
      }
    </style>
  </defs>
  <rect class="cls-1" width="301.06" height="287"/>
  <g>
    <g>
      <path class="cls-3" d="M240.43,118.04c-4.16,6.69-8.04,13.57-12.52,20.04-19.21,27.78-42.99,51.27-69.1,72.5-1.69,1.37-3.53,2.71-5.52,3.52-3.66,1.5-7.16,.39-10.31-1.7-7.36-4.88-14.79-9.65-21.97-14.79-18.35-13.13-35.53-27.65-50.82-44.3-11.04-12.03-20.82-24.96-27.85-39.8-5.65-11.93-9.37-24.4-8.76-37.72,1.15-25.01,12.1-44.44,33.89-57.23,10.28-6.03,21.56-7.67,33.36-6.38,19.2,2.11,33.77,11.8,44.95,27.16,5.57,7.65,9.87,16.02,14.13,24.41,8.17,16.1,21.57,25.28,38.79,29.32,8.55,2.01,17.16,2.1,25.68-.34,13.05-3.74,20.51-13.16,21.1-26.71,.39-9-1.67-17.22-8.95-23.13-3.12-2.53-6.8-4.64-10.55-6.1-9.53-3.69-19.41-4.12-29.29-1.47-10.73,2.88-18.37,9.93-24.41,18.92-2.34,3.48-4.41,7.15-6.74,10.95-.45-.76-.91-1.45-1.3-2.18-3.43-6.32-6.87-12.63-10.23-18.99-.27-.52-.22-1.51,.1-1.99,10.09-15,23.27-25.79,41.5-29,18.85-3.32,36.66-.41,52.43,10.97,12.44,8.97,18.45,21.61,19.26,36.75,.6,11.09-1.33,21.69-7.26,31.29-7.78,12.6-19.38,19.82-33.59,22.75-20.19,4.17-39.17,.33-56.92-9.87-13.83-7.95-23.7-19.51-30.58-33.81-3.55-7.38-7.44-14.59-12.59-21.02-9.75-12.17-22.34-17.88-37.91-15.91-9.68,1.22-17.12,6.7-22.96,14.25-10.25,13.25-12.32,28.09-7.8,43.97,3.19,11.23,9,21.15,15.83,30.51,10.26,14.07,22.51,26.25,35.66,37.58,12.55,10.81,25.83,20.67,39.7,29.75,.96,.63,1.66,.69,2.67,.1,27.48-16.05,53.25-34.36,75.29-57.52,4.22-4.44,8-9.3,11.99-13.97,.34-.39,.66-.8,.99-1.2,.19,.13,.39,.26,.58,.38Z"/>
      <path class="cls-2" d="M65.87,87.83c5.43,6.3,12.63,8.88,20.58,9.01,19.41,.33,35.85-6.53,48.84-21.16,.23-.26,.4-.57,.54-.77,3.69,5.72,7.26,11.28,11.06,17.17-3.37,1.87-6.81,4.09-10.5,5.77-15.39,7.03-31.43,9.26-48.07,5.69-7.44-1.6-14.22-4.68-19.41-10.51-1.33-1.49-2.33-3.26-3.49-4.91,.15-.1,.3-.2,.45-.3Z"/>
    </g>
    <g>
      <path class="cls-2" d="M32.06,226.86h8.81l11.01,33.12,11.11-33.12h8.8l7.96,47.48h-8.74l-5.09-29.99-10.09,29.99h-7.97l-10-29.99-5.21,29.99h-8.81l8.22-47.48Z"/>
      <path class="cls-2" d="M111.89,239.23h8.81v35.12h-8.81v-3.71c-1.72,1.64-3.44,2.81-5.17,3.53-1.73,.72-3.61,1.08-5.63,1.08-4.54,0-8.46-1.76-11.77-5.28-3.31-3.52-4.96-7.89-4.96-13.12s1.6-9.87,4.8-13.33c3.2-3.46,7.09-5.2,11.67-5.2,2.11,0,4.08,.4,5.93,1.19,1.85,.8,3.56,1.99,5.13,3.58v-3.87Zm-9.26,7.23c-2.72,0-4.99,.96-6.79,2.89-1.8,1.93-2.7,4.4-2.7,7.41s.92,5.53,2.75,7.49c1.83,1.96,4.09,2.94,6.77,2.94s5.06-.96,6.88-2.89c1.82-1.93,2.73-4.45,2.73-7.57s-.91-5.53-2.73-7.42c-1.82-1.89-4.13-2.84-6.92-2.84Z"/>
      <path class="cls-2" d="M151.11,244.13l-5.46,5.46c-2.22-2.19-4.23-3.29-6.04-3.29-.99,0-1.76,.21-2.32,.63-.56,.42-.84,.94-.84,1.57,0,.47,.18,.91,.53,1.31,.35,.4,1.23,.94,2.63,1.63l3.23,1.61c3.4,1.68,5.73,3.39,7,5.13,1.27,1.74,1.9,3.79,1.9,6.13,0,3.12-1.15,5.72-3.44,7.81-2.29,2.09-5.36,3.13-9.22,3.13-5.12,0-9.21-2-12.27-6l5.42-5.91c1.03,1.21,2.24,2.18,3.63,2.92,1.39,.74,2.62,1.11,3.7,1.11,1.16,0,2.1-.28,2.81-.84,.71-.56,1.06-1.2,1.06-1.94,0-1.36-1.28-2.68-3.84-3.97l-2.97-1.48c-5.68-2.86-8.52-6.44-8.52-10.75,0-2.78,1.07-5.15,3.21-7.12,2.14-1.97,4.88-2.95,8.21-2.95,2.28,0,4.43,.5,6.44,1.5,2.01,1,3.72,2.44,5.12,4.31Z"/>
      <path class="cls-2" d="M184.62,239.23h8.81v35.12h-8.81v-3.71c-1.72,1.64-3.44,2.81-5.17,3.53-1.73,.72-3.61,1.08-5.63,1.08-4.54,0-8.46-1.76-11.77-5.28-3.31-3.52-4.96-7.89-4.96-13.12s1.6-9.87,4.8-13.33c3.2-3.46,7.09-5.2,11.67-5.2,2.11,0,4.08,.4,5.93,1.19,1.85,.8,3.56,1.99,5.13,3.58v-3.87Zm-9.26,7.23c-2.72,0-4.99,.96-6.79,2.89-1.8,1.93-2.7,4.4-2.7,7.41s.92,5.53,2.75,7.49c1.83,1.96,4.09,2.94,6.77,2.94s5.06-.96,6.88-2.89c1.82-1.93,2.73-4.45,2.73-7.57s-.91-5.53-2.73-7.42c-1.82-1.89-4.13-2.84-6.92-2.84Z"/>
      <path class="cls-2" d="M202.37,225.67h8.75v17.11c1.72-1.48,3.45-2.6,5.2-3.34,1.74-.74,3.51-1.11,5.29-1.11,3.49,0,6.42,1.21,8.81,3.62,2.04,2.09,3.07,5.15,3.07,9.2v23.21h-8.68v-15.4c0-4.07-.19-6.82-.58-8.26-.39-1.44-1.05-2.52-1.98-3.23-.94-.71-2.09-1.07-3.47-1.07-1.79,0-3.32,.59-4.6,1.78-1.28,1.18-2.17,2.8-2.66,4.84-.26,1.05-.39,3.46-.39,7.23v14.11h-8.75v-48.68Z"/>
      <path class="cls-2" d="M277.19,259.34h-28.31c.41,2.5,1.5,4.48,3.28,5.96,1.78,1.47,4.04,2.21,6.79,2.21,3.29,0,6.12-1.15,8.49-3.45l7.42,3.49c-1.85,2.63-4.07,4.57-6.65,5.83-2.58,1.26-5.65,1.89-9.2,1.89-5.51,0-10-1.74-13.46-5.21-3.46-3.48-5.2-7.83-5.2-13.06s1.73-9.81,5.18-13.35c3.45-3.54,7.78-5.31,12.99-5.31,5.53,0,10.03,1.77,13.49,5.31,3.46,3.54,5.2,8.21,5.2,14.02l-.03,1.68Zm-8.81-6.94c-.58-1.96-1.73-3.55-3.44-4.78-1.71-1.23-3.7-1.84-5.97-1.84-2.46,0-4.61,.69-6.47,2.07-1.16,.86-2.24,2.38-3.23,4.55h19.11Z"/>
    </g>
  </g>
</svg>