<?xml version="1.0" encoding="UTF-8"?>
<svg id="Layer_1" data-name="Layer 1" xmlns="http://www.w3.org/2000/svg" viewBox="0 0 612 202.06">
  <defs>
    <style>
      .cls-1 {
        fill: #fff;
      }

      .cls-2 {
        fill: #d61c50;
      }

      .cls-3 {
        fill: #010101;
      }
    </style>
  </defs>
  <rect class="cls-1" width="612" height="202.06"/>
  <g>
    <g>
      <path d="M181.19,108.3c-3.35,5.4-6.49,10.94-10.1,16.16-15.5,22.42-34.69,41.36-55.75,58.5-1.36,1.11-2.85,2.19-4.45,2.84-2.96,1.21-5.77,.31-8.32-1.37-5.94-3.93-11.93-7.79-17.72-11.93-14.81-10.59-28.66-22.31-41-35.74-8.91-9.7-16.8-20.14-22.47-32.11-4.56-9.63-7.56-19.68-7.07-30.44,.93-20.18,9.76-35.86,27.35-46.17,8.29-4.86,17.4-6.19,26.91-5.14,15.49,1.7,27.24,9.52,36.27,21.91,4.49,6.17,7.96,12.93,11.4,19.7,6.59,12.99,17.4,20.39,31.3,23.65,6.9,1.62,13.84,1.69,20.72-.28,10.53-3.02,16.55-10.62,17.03-21.55,.32-7.26-1.35-13.9-7.22-18.66-2.52-2.04-5.48-3.75-8.51-4.92-7.69-2.98-15.66-3.32-23.63-1.18-8.65,2.32-14.82,8.01-19.69,15.26-1.89,2.81-3.56,5.77-5.44,8.83-.37-.61-.73-1.17-1.05-1.76-2.77-5.1-5.54-10.19-8.26-15.32-.22-.42-.18-1.22,.08-1.61,8.14-12.1,18.77-20.81,33.48-23.4,15.21-2.68,29.57-.33,42.3,8.85,10.03,7.23,14.88,17.43,15.54,29.65,.48,8.95-1.07,17.5-5.85,25.24-6.28,10.16-15.64,15.99-27.1,18.36-16.29,3.36-31.6,.26-45.93-7.97-11.16-6.41-19.12-15.74-24.67-27.28-2.86-5.95-6-11.77-10.16-16.96-7.87-9.82-18.02-14.42-30.59-12.84-7.81,.99-13.81,5.41-18.52,11.5-8.27,10.69-9.94,22.66-6.3,35.48,2.57,9.06,7.26,17.06,12.77,24.61,8.28,11.35,18.17,21.18,28.77,30.32,10.13,8.73,20.84,16.68,32.03,24,.78,.51,1.34,.56,2.16,.08,22.17-12.95,42.96-27.72,60.74-46.41,3.41-3.58,6.46-7.5,9.67-11.27,.27-.32,.53-.64,.8-.97,.16,.1,.31,.21,.47,.31Z"/>
      <path class="cls-2" d="M40.36,83.93c4.38,5.08,10.19,7.16,16.61,7.27,15.66,.27,28.92-5.27,39.41-17.07,.18-.21,.32-.46,.44-.62,2.97,4.62,5.86,9.1,8.92,13.85-2.72,1.51-5.5,3.3-8.47,4.66-12.42,5.67-25.36,7.47-38.79,4.59-6-1.29-11.48-3.78-15.66-8.48-1.07-1.2-1.88-2.63-2.81-3.96,.12-.08,.24-.16,.36-.24Z"/>
    </g>
    <g>
      <path class="cls-3" d="M190.13,105.86h14.71l18.39,55.33,18.56-55.33h14.7l13.31,79.33h-14.6l-8.51-50.1-16.85,50.1h-13.31l-16.7-50.1-8.71,50.1h-14.72l13.74-79.33Z"/>
      <path class="cls-3" d="M323.52,126.52h14.72v58.68h-14.72v-6.2c-2.87,2.73-5.76,4.7-8.65,5.91-2.89,1.2-6.02,1.81-9.4,1.81-7.58,0-14.13-2.94-19.66-8.82-5.53-5.88-8.3-13.19-8.3-21.92s2.68-16.48,8.03-22.27c5.35-5.79,11.85-8.68,19.5-8.68,3.52,0,6.82,.67,9.91,2,3.09,1.33,5.94,3.33,8.57,5.99v-6.47Zm-15.48,12.08c-4.55,0-8.33,1.61-11.34,4.83-3.01,3.22-4.52,7.34-4.52,12.38s1.53,9.24,4.59,12.51c3.06,3.27,6.84,4.91,11.31,4.91s8.46-1.61,11.5-4.83c3.05-3.22,4.57-7.43,4.57-12.65s-1.52-9.24-4.57-12.4c-3.05-3.16-6.9-4.75-11.56-4.75Z"/>
      <path class="cls-3" d="M389.04,134.71l-9.11,9.11c-3.7-3.67-7.06-5.5-10.08-5.5-1.65,0-2.95,.35-3.88,1.05-.94,.7-1.4,1.57-1.4,2.62,0,.79,.3,1.52,.89,2.18,.59,.67,2.06,1.57,4.4,2.72l5.39,2.7c5.68,2.8,9.58,5.66,11.7,8.58,2.12,2.91,3.18,6.33,3.18,10.25,0,5.21-1.91,9.56-5.74,13.05-3.83,3.49-8.96,5.23-15.4,5.23-8.56,0-15.39-3.34-20.49-10.03l9.06-9.87c1.73,2.01,3.75,3.64,6.07,4.88,2.32,1.24,4.38,1.86,6.18,1.86,1.94,0,3.51-.47,4.69-1.4,1.19-.93,1.78-2.01,1.78-3.24,0-2.26-2.14-4.48-6.42-6.63l-4.96-2.48c-9.49-4.78-14.24-10.77-14.24-17.96,0-4.64,1.79-8.6,5.37-11.89,3.58-3.29,8.15-4.93,13.73-4.93,3.81,0,7.4,.84,10.76,2.51,3.36,1.67,6.21,4.07,8.55,7.2Z"/>
      <path class="cls-3" d="M445.02,126.52h14.72v58.68h-14.72v-6.2c-2.87,2.73-5.76,4.7-8.65,5.91-2.89,1.2-6.02,1.81-9.4,1.81-7.58,0-14.13-2.94-19.66-8.82-5.53-5.88-8.3-13.19-8.3-21.92s2.68-16.48,8.03-22.27c5.35-5.79,11.85-8.68,19.5-8.68,3.52,0,6.82,.67,9.91,2,3.09,1.33,5.94,3.33,8.57,5.99v-6.47Zm-15.48,12.08c-4.55,0-8.33,1.61-11.34,4.83-3.01,3.22-4.52,7.34-4.52,12.38s1.53,9.24,4.59,12.51c3.06,3.27,6.84,4.91,11.31,4.91s8.46-1.61,11.5-4.83c3.05-3.22,4.57-7.43,4.57-12.65s-1.52-9.24-4.57-12.4c-3.05-3.16-6.9-4.75-11.56-4.75Z"/>
      <path class="cls-3" d="M474.68,103.86h14.62v28.58c2.88-2.48,5.77-4.34,8.68-5.58s5.86-1.86,8.84-1.86c5.82,0,10.73,2.01,14.72,6.04,3.42,3.49,5.12,8.61,5.12,15.37v38.78h-14.51v-25.72c0-6.8-.32-11.4-.97-13.81-.65-2.41-1.75-4.21-3.32-5.39-1.56-1.19-3.5-1.78-5.8-1.78-2.98,0-5.55,.99-7.69,2.97-2.14,1.98-3.62,4.67-4.45,8.09-.43,1.76-.65,5.79-.65,12.08v23.57h-14.62V103.86Z"/>
      <path class="cls-3" d="M599.7,160.11h-47.3c.68,4.17,2.51,7.49,5.47,9.95,2.97,2.46,6.75,3.69,11.35,3.69,5.5,0,10.23-1.92,14.18-5.77l12.4,5.82c-3.09,4.39-6.8,7.63-11.11,9.73s-9.44,3.15-15.37,3.15c-9.2,0-16.7-2.9-22.49-8.71-5.79-5.81-8.68-13.08-8.68-21.82s2.89-16.39,8.66-22.3c5.77-5.91,13.01-8.87,21.71-8.87,9.24,0,16.75,2.96,22.54,8.87,5.79,5.91,8.68,13.73,8.68,23.43l-.05,2.8Zm-14.72-11.6c-.97-3.27-2.89-5.93-5.75-7.98s-6.19-3.07-9.97-3.07c-4.11,0-7.71,1.15-10.8,3.45-1.94,1.44-3.75,3.97-5.4,7.6h31.93Z"/>
    </g>
  </g>
</svg>